<svg xmlns="http://www.w3.org/2000/svg" viewBox="0 0 800 500" fill="none">
  <rect width="800" height="500" rx="12" fill="#F8FAFC"/>
  <rect x="100" y="80" width="600" height="340" rx="16" fill="white" stroke="#E2E8F0"/>
  <text x="130" y="120" fill="#0F172A" font-size="18" font-weight="600" font-family="system-ui">Processing import</text>
  <text x="130" y="145" fill="#64748B" font-size="13" font-family="system-ui">Extracting batch 2 of 4...</text>
  <rect x="130" y="170" width="540" height="12" rx="6" fill="#F1F5F9"/>
  <rect x="130" y="170" width="270" height="12" rx="6" fill="#F97316"/>
  <text x="130" y="210" fill="#64748B" font-size="11" font-family="system-ui">OVERALL PROGRESS  50%</text>
  <rect x="130" y="240" width="120" height="70" rx="10" fill="#F8FAFC"/>
  <text x="190" y="265" text-anchor="middle" fill="#64748B" font-size="10" font-family="system-ui">ROWS PROCESSED</text>
  <text x="190" y="290" text-anchor="middle" fill="#0F172A" font-size="14" font-weight="600" font-family="system-ui">100 / 200</text>
  <rect x="270" y="240" width="120" height="70" rx="10" fill="#F8FAFC"/>
  <text x="330" y="265" text-anchor="middle" fill="#64748B" font-size="10" font-family="system-ui">BATCH</text>
  <text x="330" y="290" text-anchor="middle" fill="#0F172A" font-size="14" font-weight="600" font-family="system-ui">2 / 4</text>
  <rect x="410" y="240" width="120" height="70" rx="10" fill="#F8FAFC"/>
  <text x="470" y="265" text-anchor="middle" fill="#64748B" font-size="10" font-family="system-ui">THROUGHPUT</text>
  <text x="470" y="290" text-anchor="middle" fill="#0F172A" font-size="14" font-weight="600" font-family="system-ui">64 rows/s</text>
  <rect x="550" y="240" width="120" height="70" rx="10" fill="#F8FAFC"/>
  <text x="610" y="265" text-anchor="middle" fill="#64748B" font-size="10" font-family="system-ui">EST. COST</text>
  <text x="610" y="290" text-anchor="middle" fill="#0F172A" font-size="14" font-weight="600" font-family="system-ui">$0.04</text>
</svg>
